 <svg
              width="18"
              height="17"
              viewBox="0 0 18 17"
              fill="none"
              xmlns="http://www.w3.org/2000/svg"
            >
              <path
                d="M15.1036 13.7722C13.0964 13.1059 13.7882 13.3589 11.1174 12.3981V10.477C11.1174 10.477 11.935 9.75586 11.935 8.47511C12.2686 8.47511 12.6021 7.19487 11.935 6.87442C11.935 6.68449 12.4074 5.61724 11.7403 4.29339C10.955 2.73516 7.53959 3.00935 6.97502 4.20081C6.17853 5.47237 6.59338 6.61492 6.59338 6.87442C5.92621 7.19487 6.25979 8.47511 6.59338 8.47511C6.59338 9.75586 7.41092 10.3668 7.41092 10.3668V12.3981C4.74013 13.3589 5.27233 13.1085 3.28613 13.7722"
                stroke="#677E8C"
                stroke-width="0.941176"
                stroke-linecap="round"
                stroke-linejoin="round"
              />
              <ellipse
                cx="9"
                cy="8.75155"
                rx="8"
                ry="7.75155"
                stroke="#677E8C"
                stroke-width="0.941176"
              />
            </svg>