<svg width="24" height="24" viewBox="0 0 24 24" fill="none" xmlns="http://www.w3.org/2000/svg">
<path fill-rule="evenodd" clip-rule="evenodd" d="M17.8366 4H6.15491C4.96481 4 4 4.96477 4 6.15491V17.8367C4 19.0269 4.96477 19.9916 6.15491 19.9916H11.9163L11.9261 14.2771H10.4415C10.2485 14.2771 10.0919 14.1211 10.0912 13.9281L10.0841 12.0861C10.0833 11.8921 10.2404 11.7345 10.4344 11.7345H11.9163V9.95458C11.9163 7.88906 13.1778 6.76436 15.0204 6.76436H16.5324C16.7258 6.76436 16.8827 6.92119 16.8827 7.11468V8.66789C16.8827 8.8613 16.7259 9.01809 16.5326 9.01821L15.6047 9.01864C14.6026 9.01864 14.4086 9.49481 14.4086 10.1936V11.7345H16.6105C16.8203 11.7345 16.983 11.9177 16.9583 12.126L16.74 13.9681C16.7191 14.1444 16.5696 14.2772 16.3921 14.2772H14.4184L14.4086 19.9917H17.8367C19.0268 19.9917 19.9916 19.0269 19.9916 17.8368V6.15491C19.9916 4.96477 19.0268 4 17.8366 4Z" fill="white"/>
</svg>
