<svg width="24" height="24" viewBox="0 0 24 24" fill="none" xmlns="http://www.w3.org/2000/svg">
<path fill-rule="evenodd" clip-rule="evenodd" d="M12.1575 20C12.1045 20 12.0515 20 11.9982 19.9997C10.744 20.0028 9.58521 19.9709 8.45825 19.9023C7.42505 19.8394 6.48193 19.4824 5.73071 18.8698C5.00586 18.2788 4.51086 17.4796 4.25952 16.4947C4.04077 15.6373 4.02917 14.7956 4.01807 13.9815C4.01001 13.3974 4.00171 12.7053 4 12.0014C4.00171 11.2946 4.01001 10.6025 4.01807 10.0184C4.02917 9.20442 4.04077 8.36275 4.25952 7.5052C4.51086 6.52034 5.00586 5.72115 5.73071 5.13008C6.48193 4.51753 7.42505 4.16048 8.45837 4.09761C9.58533 4.02913 10.7444 3.99715 12.0012 4.0002C13.2557 3.99751 14.4142 4.02913 15.5411 4.09761C16.5743 4.16048 17.5175 4.51753 18.2687 5.13008C18.9937 5.72115 19.4885 6.52034 19.7399 7.5052C19.9586 8.36263 19.9702 9.20442 19.9813 10.0184C19.9894 10.6025 19.9978 11.2946 19.9994 11.9985V12.0014C19.9978 12.7053 19.9894 13.3974 19.9813 13.9815C19.9702 14.7955 19.9587 15.6372 19.7399 16.4947C19.4885 17.4796 18.9937 18.2788 18.2687 18.8698C17.5175 19.4824 16.5743 19.8394 15.5411 19.9023C14.4619 19.968 13.3533 20 12.1575 20ZM11.9982 18.7497C13.2319 18.7526 14.3647 18.7215 15.4652 18.6546C16.2465 18.6071 16.9238 18.3536 17.4788 17.9011C17.9917 17.4827 18.345 16.9056 18.5287 16.1856C18.7108 15.4719 18.7213 14.7055 18.7314 13.9644C18.7394 13.3842 18.7477 12.697 18.7494 12C18.7477 11.3028 18.7394 10.6157 18.7314 10.0355C18.7213 9.29439 18.7108 8.52803 18.5287 7.81416C18.345 7.09419 17.9917 6.51704 17.4788 6.09871C16.9238 5.64632 16.2465 5.39278 15.4652 5.34529C14.3647 5.27828 13.2319 5.24739 12.0011 5.25008C10.7676 5.24715 9.63464 5.27828 8.53418 5.34529C7.75293 5.39278 7.07556 5.64632 6.52063 6.09871C6.00769 6.51704 5.65442 7.09419 5.4707 7.81416C5.28857 8.52803 5.27808 9.29427 5.26794 10.0355C5.26001 10.6162 5.25171 11.3038 5.25 12.0014C5.25171 12.696 5.26001 13.3837 5.26794 13.9644C5.27808 14.7055 5.28857 15.4719 5.4707 16.1856C5.65442 16.9056 6.00769 17.4827 6.52063 17.9011C7.07556 18.3535 7.75293 18.607 8.53418 18.6545C9.63464 18.7215 10.7678 18.7528 11.9982 18.7497ZM11.9684 15.9062C9.81458 15.9062 8.06213 14.1539 8.06213 12C8.06213 9.84602 9.81458 8.09371 11.9684 8.09371C14.1223 8.09371 15.8746 9.84602 15.8746 12C15.8746 14.1539 14.1223 15.9062 11.9684 15.9062ZM11.9684 9.34371C10.5038 9.34371 9.31213 10.5354 9.31213 12C9.31213 13.4646 10.5038 14.6562 11.9684 14.6562C13.4331 14.6562 14.6246 13.4646 14.6246 12C14.6246 10.5354 13.4331 9.34371 11.9684 9.34371V9.34371ZM16.3121 6.84371C15.7944 6.84371 15.3746 7.26338 15.3746 7.78121C15.3746 8.29903 15.7944 8.71871 16.3121 8.71871C16.83 8.71871 17.2496 8.29903 17.2496 7.78121C17.2496 7.26338 16.83 6.84371 16.3121 6.84371Z" fill="white"/>
</svg>
