<svg width="24" height="24" viewBox="0 0 24 24" fill="none" xmlns="http://www.w3.org/2000/svg">
<path fill-rule="evenodd" clip-rule="evenodd" d="M18.8571 4H5.13943C4.51086 4 4 4.51771 4 5.15371V18.8463C4 19.4823 4.51086 20 5.13943 20H18.8571C19.4857 20 20 19.4823 20 18.8463V5.15371C20 4.51829 19.4857 4 18.8571 4ZM8.836 17.7143H6.46457V10.0783H8.83943V17.7143H8.836ZM7.65029 9.036C6.88971 9.036 6.27543 8.41829 6.27543 7.66114C6.27543 6.904 6.88971 6.28629 7.65029 6.28629C8.40743 6.28629 9.02514 6.904 9.02514 7.66114C9.02514 8.42171 8.41086 9.036 7.65029 9.036ZM17.7251 17.7143H15.3537V14C15.3537 13.1143 15.336 11.9749 14.1217 11.9749C12.8863 11.9749 12.6966 12.9394 12.6966 13.9354V17.7143H10.3251V10.0783H12.6V11.1211H12.632C12.9497 10.5211 13.7246 9.88914 14.8783 9.88914C17.2783 9.88914 17.7246 11.4714 17.7246 13.5286V17.7143H17.7251Z" fill="white"/>
</svg>
