<svg width="205" height="24" viewBox="0 0 205 24" fill="none" xmlns="http://www.w3.org/2000/svg">
<path fill-rule="evenodd" clip-rule="evenodd" d="M0 8.16C0 3.70286 4.16694 0 9.42686 0C14.5501 0 18.8537 3.70286 18.8537 8.16V8.50286C18.3755 15.2229 9.42686 24 9.42686 24C9.42686 24 0.341553 15.2229 0 8.50286V8.16ZM14.0713 10.6287C14.6178 11.0401 15.3692 11.0401 15.8474 10.423C16.3256 9.94299 16.2573 9.12013 15.5742 8.64013L10.041 4.32013C9.56285 3.97727 8.94805 3.97727 8.46988 4.32013L2.93672 8.64013C2.39024 9.12013 2.25362 9.80585 2.73179 10.423C3.00503 10.7658 3.34659 10.903 3.68814 10.903C3.96138 10.903 4.23462 10.7658 4.43956 10.6287L4.91773 10.2858L5.53253 14.6058C5.53253 14.8801 5.60084 15.0858 5.73746 15.223C5.76971 15.2392 5.80577 15.2592 5.84384 15.2803C5.96703 15.3487 6.11126 15.4287 6.21563 15.4287H7.65015C8.26495 15.4287 8.26495 14.8116 8.26495 14.8116L8.12833 12.7544C8.12833 12.5487 8.19664 12.2744 8.46988 12.2744H10.041C10.246 12.2744 10.3826 12.4801 10.3826 12.7544L10.246 14.8116C10.246 14.9487 10.246 15.4287 10.8607 15.4287H12.2953C12.5002 15.4287 12.6368 15.3601 12.7734 15.223C12.8418 15.0858 12.9784 14.8116 12.9784 14.6058L13.5932 10.2858L14.0713 10.6287Z" fill="#2951A3"/>
<path d="M25.6855 5.28029H29.7841V8.16029C30.6039 6.24029 31.9018 4.93743 34.2926 5.006V9.18886H34.0194C31.287 9.18886 29.7158 10.9031 29.7158 14.1946V19.4746H25.6172C25.6855 19.5431 25.6855 5.28029 25.6855 5.28029Z" fill="#2951A3"/>
<path d="M35.5898 14.5374V5.28027H39.6885V13.3031C39.6885 15.2231 40.6448 16.1831 42.216 16.1831C43.7871 16.1831 44.7435 15.2231 44.7435 13.3031V5.28027H48.8421V19.5431H44.7435V17.486C43.7871 18.7203 42.5575 19.7488 40.5765 19.7488C37.3659 19.9546 35.5898 17.8974 35.5898 14.5374Z" fill="#2951A3"/>
<path d="M51.2342 5.27993H55.3329V7.33708C56.2892 6.10279 57.4505 5.07422 59.4998 5.07422C61.4125 5.07422 62.7104 5.89708 63.5301 7.33708C64.7597 5.89708 66.2626 5.07422 68.1752 5.07422C71.1809 5.07422 72.957 6.85708 72.957 10.3542V19.7485H68.8584V11.6571C68.8584 9.73708 68.0386 8.77708 66.4675 8.77708C64.8963 8.77708 63.94 9.73708 63.94 11.6571V19.6799H59.8414V11.6571C59.8414 9.73708 59.0216 8.77708 57.4505 8.77708C55.8793 8.77708 55.0596 9.73708 55.0596 11.6571V19.6799H51.0293L51.2342 5.27993Z" fill="#2951A3"/>
<path fill-rule="evenodd" clip-rule="evenodd" d="M80.4021 10.8346C77.0549 10.8346 74.6641 12.2746 74.6641 15.4975C74.6641 18.3775 76.85 19.9546 79.4458 19.8861C81.3585 19.8861 82.793 19.2004 83.7494 18.1032V19.4061H87.7797V11.1089C87.7797 9.18893 87.3015 7.61179 86.2085 6.51464C85.2522 5.55464 83.6127 4.9375 81.4268 4.9375C79.0359 4.9375 77.4648 5.4175 75.8937 6.17179L76.85 9.2575C78.2162 8.7775 79.2409 8.57179 80.812 8.57179C82.793 8.57179 83.886 9.53179 83.886 11.1775V11.4518C82.9296 11.1089 81.8367 10.8346 80.4021 10.8346ZM84.0235 13.7832V14.5375C84.0235 15.9775 82.7256 17.0747 80.8813 16.8689C79.6517 16.8689 78.6953 16.3204 78.6953 15.2232C78.6953 14.0575 79.72 13.3032 81.4277 13.3032C82.4524 13.3032 83.2721 13.4404 84.0235 13.7832Z" fill="#2951A3"/>
<path d="M90.2401 0.137207H94.2704V7.33721C95.2268 6.10292 96.4563 5.07435 98.4374 5.07435C101.58 5.07435 103.356 7.13149 103.356 10.3544V19.6115H99.1888V11.5201C99.1888 9.60006 98.2324 8.64006 96.6613 8.64006C95.0901 8.64006 94.1338 9.60006 94.1338 11.5201V19.5429H90.0352L90.2401 0.137207Z" fill="#2951A3"/>
<path d="M108.614 4.93704L105.404 5.7599L104.584 2.3999L109.981 0.822754H112.713V19.6799H108.614V4.93704Z" fill="#2951A3"/>
<path d="M115.445 16.3201L121.662 11.1773C123.916 9.25725 124.872 8.16011 124.872 6.72011C124.872 5.14297 123.779 4.32011 122.345 4.32011C120.91 4.32011 119.954 5.14297 118.519 6.85725L115.65 4.59439C117.426 2.05725 119.202 0.754395 122.618 0.754395C126.443 0.754395 129.039 3.01725 129.039 6.51439C129.039 9.60011 127.468 11.1773 124.121 13.7144L121.115 16.1144H129.244V19.7487H115.514V16.3887C115.582 16.3201 115.445 16.3201 115.445 16.3201Z" fill="#2951A3"/>
<path d="M130.609 16.6628L133.478 13.92C134.776 15.36 136.074 16.1828 138.055 16.1828C139.626 16.1828 140.651 15.36 140.651 13.92C140.651 12.3428 139.353 11.52 136.962 11.52H135.323L134.708 8.84567L139.148 4.38853H131.839V0.959961H144.408V4.04568L139.763 8.57139C142.29 9.05139 144.818 10.3542 144.818 13.8514C144.818 17.3485 142.29 19.9542 138.124 19.9542C134.571 19.9542 132.181 18.5828 130.609 16.6628Z" fill="#2951A3"/>
<path d="M146.801 17.5546C146.801 16.3204 147.757 15.3604 148.918 15.3604C150.08 15.3604 151.104 16.3204 151.104 17.5546C151.104 18.7889 150.148 19.6804 148.918 19.6804C147.757 19.5432 146.801 18.5832 146.801 17.5546Z" fill="#2951A3"/>
<path d="M152.266 12.4804C152.266 8.2975 155.408 4.9375 159.78 4.9375C162.512 4.9375 164.22 5.8975 165.518 7.3375L162.99 9.94321C162.034 8.98321 161.214 8.36607 159.78 8.36607C157.73 8.36607 156.296 10.1489 156.296 12.3432C156.296 14.5375 157.73 16.3204 159.848 16.3204C161.146 16.3204 162.102 15.7032 163.059 14.7432L165.45 17.1432C164.015 18.7204 162.444 19.8175 159.575 19.8175C155.408 19.9546 152.266 16.5261 152.266 12.4804Z" fill="#2951A3"/>
<path fill-rule="evenodd" clip-rule="evenodd" d="M173.783 4.9375C169.343 4.9375 165.996 8.2975 165.996 12.4804C165.996 16.6632 169.275 19.9546 173.647 19.8175C178.087 19.8175 181.434 16.4575 181.434 12.3432C181.434 8.16036 178.224 4.9375 173.783 4.9375ZM173.783 8.50293C175.9 8.50293 177.471 10.3544 177.471 12.4801C177.471 14.6744 176.037 16.4572 173.783 16.4572C171.665 16.4572 170.094 14.6744 170.094 12.4801C170.094 10.2858 171.528 8.50293 173.783 8.50293Z" fill="#2951A3"/>
<path d="M183.346 5.27993H187.376V7.33708C188.332 6.10279 189.493 5.07422 191.543 5.07422C193.455 5.07422 194.753 5.89708 195.573 7.33708C196.803 5.89708 198.306 5.07422 200.218 5.07422C203.224 5.07422 205 6.85708 205 10.3542V19.7485H200.97V11.6571C200.97 9.73708 200.15 8.77708 198.579 8.77708C197.008 8.77708 196.051 9.73708 196.051 11.6571V19.6799H192.021V11.6571C192.021 9.73708 191.201 8.77708 189.63 8.77708C188.059 8.77708 187.103 9.73708 187.103 11.6571V19.6799H183.072V5.27993C183.141 5.27993 183.346 5.27993 183.346 5.27993Z" fill="#2951A3"/>
</svg>
