<svg width="24" height="24" viewBox="0 0 24 24" fill="none" xmlns="http://www.w3.org/2000/svg">
<path d="M19.0454 7.22222C18.1304 7.02488 17.3026 6.54832 16.6809 5.86093C16.0592 5.17354 15.6755 4.31066 15.5849 3.39611V3H12.4181V15.3066C12.4187 15.8526 12.2442 16.385 11.9191 16.8284C11.5941 17.2718 11.1351 17.6036 10.6071 17.7769C10.0791 17.9501 9.50891 17.9561 8.97727 17.7939C8.44564 17.6316 7.97952 17.3095 7.64495 16.873C7.3452 16.4867 7.16166 16.0258 7.11507 15.5424C7.06848 15.0591 7.1607 14.5726 7.38131 14.138C7.60191 13.7034 7.9421 13.338 8.36341 13.0831C8.78471 12.8283 9.27032 12.6941 9.76532 12.6958C10.0391 12.6943 10.3115 12.7337 10.5731 12.8128V9.66193C10.2686 9.62495 9.96185 9.60991 9.65517 9.61691C8.52551 9.64652 7.42917 9.99857 6.50039 10.6299C5.57162 11.2613 4.85073 12.1446 4.426 13.1717C4.00127 14.1988 3.89114 15.3251 4.10909 16.4126C4.32703 17.5001 4.8636 18.5017 5.65309 19.2947C6.46221 20.1015 7.49762 20.6542 8.62775 20.8826C9.75788 21.1109 10.9317 21.0047 12.0001 20.5772C13.0685 20.1498 13.9832 19.4205 14.6281 18.482C15.2729 17.5435 15.6187 16.4382 15.6216 15.3066V9.00474C16.8988 9.89955 18.4304 10.3782 20 10.3731V7.31225C19.6917 7.31349 19.3841 7.28332 19.0821 7.22222H19.0454Z" fill="white"/>
</svg>
