<svg width="24" height="24" viewBox="0 0 24 24" fill="none" xmlns="http://www.w3.org/2000/svg">
<path fill-rule="evenodd" clip-rule="evenodd" d="M20 7.539C19.405 7.8 18.771 7.973 18.11 8.057C18.79 7.651 19.309 7.013 19.553 6.244C18.919 6.622 18.219 6.889 17.473 7.038C16.871 6.397 16.013 6 15.077 6C13.261 6 11.799 7.474 11.799 9.281C11.799 9.541 11.821 9.791 11.875 10.029C9.148 9.896 6.735 8.589 5.114 6.598C4.831 7.089 4.665 7.651 4.665 8.256C4.665 9.392 5.25 10.399 6.122 10.982C5.595 10.972 5.078 10.819 4.64 10.578C4.64 10.588 4.64 10.601 4.64 10.614C4.64 12.208 5.777 13.532 7.268 13.837C7.001 13.91 6.71 13.945 6.408 13.945C6.198 13.945 5.986 13.933 5.787 13.889C6.212 15.188 7.418 16.143 8.852 16.174C7.736 17.047 6.319 17.573 4.785 17.573C4.516 17.573 4.258 17.561 4 17.528C5.453 18.465 7.175 19 9.032 19C15.068 19 18.368 14 18.368 9.666C18.368 9.521 18.363 9.381 18.356 9.242C19.007 8.78 19.554 8.203 20 7.539Z" fill="white"/>
</svg>
