<svg width="24" height="24" viewBox="0 0 24 24" fill="none" xmlns="http://www.w3.org/2000/svg">
<path fill-rule="evenodd" clip-rule="evenodd" d="M7.96275 7.62163V10.0869H8.87422V7.62163L9.97066 4H9.04899L8.4271 6.39033L7.78007 4H6.82095C6.91576 4.27835 7.01245 4.55738 7.10916 4.83649L7.1092 4.8366C7.20852 5.12321 7.30786 5.4099 7.40521 5.696C7.69761 6.54488 7.88011 7.18488 7.96275 7.62163ZM14.6239 9.59209C14.2966 9.96695 13.9847 10.1491 13.6849 10.1491C13.4203 10.1491 13.238 10.0418 13.1554 9.81204C13.11 9.67473 13.0826 9.45793 13.0826 9.13758V5.55077H13.9019V8.89037C13.9019 9.0829 13.9019 9.18295 13.9119 9.20985C13.9299 9.33732 13.9946 9.40237 14.1046 9.40237C14.269 9.40237 14.4417 9.27508 14.6239 9.01767V5.55077H15.4458V10.0869H14.6239V9.59209ZM16.7823 10.7492C17.487 10.8278 18.0725 11.3558 18.2372 12.0716C18.4697 13.0825 18.4698 14.1851 18.47 15.2272L18.47 15.2529C18.47 16.3024 18.4688 17.4149 18.2344 18.4341C18.0698 19.1497 17.4843 19.6777 16.78 19.7565C15.1109 19.943 13.4221 19.9439 11.7402 19.943C10.0584 19.9437 8.36926 19.943 6.70069 19.7565C5.99598 19.6777 5.41084 19.1497 5.24627 18.4341C5.01172 17.4149 5.01172 16.3024 5.01172 15.2529C5.01172 14.2034 5.01453 13.0908 5.24908 12.0716C5.41365 11.356 5.9988 10.828 6.70315 10.7492C8.37207 10.5628 10.0612 10.5619 11.7431 10.5628C13.4244 10.5619 15.1139 10.5628 16.7823 10.7492ZM7.87642 12.8615H8.85049V12.0137H6.01532V12.8615H6.97163V18.0375H7.87642V12.8615ZM11.308 18.0376H10.4941V17.548C10.1708 17.9186 9.86376 18.0993 9.56469 18.0993C9.30253 18.0993 9.12214 17.9931 9.04073 17.7658C8.99642 17.6301 8.96899 17.4152 8.96899 17.0984V13.5492H9.78218V16.8538C9.78218 17.0444 9.78218 17.1434 9.78957 17.1701C9.80908 17.2964 9.8708 17.3604 9.97981 17.3604C10.143 17.3604 10.3135 17.2346 10.4939 16.9795V13.5492H11.3078L11.308 18.0376ZM14.3155 17.5949C14.3698 17.4047 14.3977 17.1056 14.3977 16.6905V14.9029C14.3977 14.4779 14.3701 14.1811 14.3155 14.0005C14.207 13.6645 13.9893 13.4942 13.6658 13.4942C13.3667 13.4942 13.0879 13.6577 12.8252 13.981V12.0137H12.012V18.0378H12.8252V17.6028C13.0972 17.9386 13.3764 18.0993 13.6658 18.0993C13.9893 18.0993 14.2068 17.9288 14.3155 17.5949ZM17.4671 15.9416H15.8406V16.7372C15.8406 17.1527 15.9765 17.3602 16.256 17.3602C16.4563 17.3602 16.5729 17.2513 16.6193 17.034C16.6268 16.9899 16.6376 16.8091 16.6376 16.483H17.4673V16.6017C17.4673 16.8638 17.4573 17.0444 17.4499 17.1256C17.4226 17.3057 17.3586 17.469 17.26 17.6128C17.0348 17.9388 16.701 18.0995 16.2762 18.0995C15.8508 18.0995 15.5269 17.9464 15.2918 17.6399C15.1193 17.4152 15.0307 17.0615 15.0307 16.5844V15.0124C15.0307 14.5326 15.1093 14.1816 15.2821 13.9548C15.517 13.6476 15.8407 13.4947 16.2562 13.4947C16.6643 13.4947 16.9878 13.6476 17.2157 13.9548C17.386 14.1816 17.4675 14.5326 17.4675 15.0124V15.9416H17.4671ZM15.8407 14.8491C15.8407 14.4341 15.977 14.2265 16.2488 14.2265C16.5178 14.2265 16.6537 14.4341 16.6539 14.8491V15.2644H15.8407V14.8491ZM13.2306 14.2265C13.0966 14.2265 12.9609 14.2898 12.825 14.4243V17.1599C12.9607 17.296 13.0966 17.3604 13.2306 17.3604C13.4652 17.3604 13.5844 17.1599 13.5844 16.7546V14.8389C13.5844 14.4341 13.4652 14.2265 13.2306 14.2265ZM11.1923 10.1491C11.6041 10.1491 11.9241 9.9942 12.1511 9.68475C12.3235 9.45776 12.4062 9.10013 12.4062 8.61802V7.02963C12.4062 6.5447 12.3237 6.19024 12.1511 5.96114C11.9241 5.65081 11.6042 5.49591 11.1923 5.49591C10.7826 5.49591 10.4628 5.65081 10.2353 5.96114C10.0607 6.19024 9.97805 6.5447 9.97805 7.02963V8.61802C9.97805 9.10013 10.0607 9.45776 10.2353 9.68475C10.4626 9.9942 10.7826 10.1491 11.1923 10.1491ZM10.8 6.86488C10.8 6.44519 10.9273 6.23596 11.1923 6.23596C11.4573 6.23596 11.5842 6.44501 11.5842 6.86488V8.77292C11.5842 9.19262 11.4573 9.40255 11.1923 9.40255C10.9273 9.40255 10.8 9.19262 10.8 8.77292V6.86488Z" fill="white"/>
</svg>
